# xmcd
#
# Track frame offsets: 
#        150
#        20046
#        46520
#        65715
#        81335
#        100761
#        123561
#        140814
#        160374
#        177024
#        194573
#        211160
#        227210
#        244155
#        263763
#        276982
#        298877
#        322505
#        343282
#
# Disc length: 4784 seconds
#
# Revision: 1
# Processed by: cddbd v1.5.2PL0 Copyright (c) Steve Scherf et al.
# Submitted via: ExactAudioCopy v0.99pb5
#
DISCID=2512ae13
DTITLE=Enigma - Greatest Hits [CD2)
DYEAR=2008
DGENRE=Ambient
TTITLE0=Seven Lives
TTITLE1=Goodbye Milky Way
TTITLE2=Following The Sun (Radio Edit)
TTITLE3=La Puerta Del Cielo
TTITLE4=The Rivers Of Belief (Radio Edit)
TTITLE5=Hello And Welcome
TTITLE6=Voyageur (Radio Edit)
TTITLE7=The Language Of Sound
TTITLE8=Boum-Boum (Radio Edit)
TTITLE9=Mea Culpa Part II
TTITLE10=Eppur Si Muove
TTITLE11=Touchness
TTITLE12=Knocking On Forbidden Doors
TTITLE13=Sitting On The Moon
TTITLE14=Deja Vu
TTITLE15=The Child In Us
TTITLE16=Light Of Your Smile
TTITLE17=The Eyes Of Truth (Radio Edit)
TTITLE18=Out From The Deep (Short Radio Edit)
EXTD=
EXTT0=
EXTT1=
EXTT2=
EXTT3=
EXTT4=
EXTT5=
EXTT6=
EXTT7=
EXTT8=
EXTT9=
EXTT10=
EXTT11=
EXTT12=
EXTT13=
EXTT14=
EXTT15=
EXTT16=
EXTT17=
EXTT18=
PLAYORDER=
